<svg viewBox="0 0 79 80" fill="none" xmlns="http://www.w3.org/2000/svg">
<rect width="78.9739" height="79.4871" fill="#FF697F"/>
<g clip-path="url(#clip0_43_3942)">
<path d="M40.2554 34.3836C40.9944 34.3836 41.714 34.3785 42.4336 34.3916C42.5037 34.3927 42.6029 34.4959 42.6354 34.5746C42.8071 34.9834 42.9616 35.3997 43.1389 35.8576C43.8232 34.6539 44.8604 34.1184 46.1719 34.1207C47.5272 34.123 48.4761 34.8095 49.1084 36.0315C49.227 35.853 49.3154 35.7008 49.4215 35.5628C50.262 34.468 51.3955 34.0027 52.7401 34.1435C54.2397 34.3009 55.1703 35.2281 55.6413 36.6085C55.8221 37.1383 55.9179 37.721 55.9258 38.281C55.9572 40.5339 55.9395 42.7879 55.939 45.0414C55.939 45.0887 55.9333 45.1354 55.9281 45.2073H52.9123V44.8823C52.9123 42.9618 52.9191 41.0408 52.906 39.1203C52.9037 38.793 52.8547 38.4549 52.7629 38.1413C52.5884 37.5477 52.1915 37.1508 51.5575 37.0841C50.8989 37.0145 50.4022 37.319 50.0521 37.8641C49.7163 38.3859 49.6342 38.9778 49.633 39.5827C49.629 41.3418 49.6319 43.1009 49.6319 44.86V45.2147H46.66C46.66 45.0938 46.66 44.9832 46.66 44.872C46.66 42.9607 46.6668 41.0499 46.6531 39.1386C46.6508 38.8118 46.5904 38.4771 46.5014 38.1612C46.3401 37.5876 45.9614 37.189 45.3633 37.0955C44.7401 36.998 44.2052 37.213 43.8061 37.7182C43.4063 38.2245 43.2587 38.817 43.2569 39.4482C43.2518 41.2455 43.2552 43.0422 43.2552 44.8395C43.2552 44.953 43.2552 45.0664 43.2552 45.2073H40.2554V34.3836Z" fill="#FCFCFC"/>
<path d="M39.0772 40.5048H31.705C31.8139 41.51 32.5883 42.4167 33.4653 42.6123C34.3804 42.8164 35.4787 42.46 35.9445 41.4165C36.9281 41.7273 37.9152 42.0392 38.9626 42.3699C38.8138 42.6516 38.6958 42.927 38.5327 43.1728C37.7236 44.3964 36.5569 45.0892 35.1457 45.3749C33.6021 45.6874 32.1435 45.4559 30.8355 44.5447C29.5565 43.654 28.8677 42.3819 28.6322 40.8663C28.4218 39.5132 28.5751 38.1948 29.1938 36.9546C30.1791 34.98 32.33 33.8898 34.5276 34.1492C37.3655 34.4839 38.811 36.84 39.0351 38.7656C39.0767 39.1237 39.104 39.4841 39.1183 39.8439C39.1263 40.0503 39.0944 40.2579 39.0778 40.5042L39.0772 40.5048ZM35.9291 38.7303C35.7923 37.7273 34.8925 36.9575 33.8707 36.9558C32.8751 36.9541 31.9354 37.7495 31.7945 38.7303H35.9291Z" fill="#FCFCFC"/>
<path d="M24.5277 34.3904H27.5493C27.555 34.5011 27.5647 34.5929 27.5647 34.6847C27.5692 37.7079 27.5761 40.7317 27.5743 43.755C27.5743 44.6861 27.5732 45.619 27.5293 46.5484C27.4563 48.088 26.2383 49.5261 24.7416 49.875C24.6594 49.8944 24.5083 49.8511 24.4696 49.7878C23.9877 49.0043 23.5202 48.2112 23.0503 47.4203C23.0372 47.398 23.0378 47.3673 23.0298 47.3285C23.1005 47.2988 23.1672 47.2675 23.2362 47.2429C24.0887 46.9367 24.5277 46.3181 24.5277 45.4086C24.5289 41.8619 24.5277 38.3152 24.5277 34.7691C24.5277 34.6573 24.5277 34.545 24.5277 34.3904Z" fill="#FCFCFC"/>
<path d="M26.0731 29.6069C27.14 29.6081 27.9212 30.4229 27.9177 31.5297C27.9143 32.6228 27.1195 33.4273 26.0418 33.4273C24.9663 33.4273 24.1863 32.6125 24.1829 31.4846C24.1789 30.4018 24.9806 29.6058 26.0731 29.6069Z" fill="#FCFCFC"/>
</g>
<defs>
<clipPath id="clip0_43_3942">
<rect width="32.9153" height="20.2732" fill="white" transform="translate(23.0293 29.6069)"/>
</clipPath>
</defs>
</svg>
